<?xml version="1.0" standalone="no"?>
<!DOCTYPE svg PUBLIC "-//W3C//DTD SVG 20010904//EN"
 "http://www.w3.org/TR/2001/REC-SVG-20010904/DTD/svg10.dtd">
<svg version="1.0" xmlns="http://www.w3.org/2000/svg"
 width="1350.000000pt" height="1350.000000pt" viewBox="0 0 1350.000000 1350.000000"
 preserveAspectRatio="xMidYMid meet">
<metadata>
Created by potrace 1.11, written by Peter Selinger 2001-2013
</metadata>
<g transform="translate(0.000000,1350.000000) scale(0.100000,-0.100000)"
fill="#000000" stroke="none">
<path d="M6240 12249 c-288 -15 -521 -73 -717 -179 -190 -102 -348 -270 -424
-448 l-28 -67 -72 -7 c-306 -32 -604 -221 -799 -508 -95 -140 -169 -336 -196
-520 -39 -267 12 -613 123 -835 86 -170 255 -364 438 -503 58 -44 99 -82 99
-91 -1 -9 -10 -52 -20 -96 -11 -51 -18 -123 -18 -196 l-1 -116 -50 14 c-82 23
-239 27 -325 9 -241 -51 -361 -227 -275 -402 47 -96 143 -149 298 -163 91 -9
224 1 272 19 14 5 31 10 36 10 5 0 9 -65 9 -154 0 -513 139 -946 422 -1318
189 -250 507 -488 838 -629 166 -70 391 -138 590 -178 451 -90 826 -77 1189
41 332 108 529 226 1011 607 354 279 517 358 721 349 100 -5 147 -27 174 -85
30 -62 3 -175 -57 -240 l-20 -22 37 -7 c63 -12 198 3 281 31 139 47 222 117
278 235 27 57 31 78 34 171 3 79 0 122 -13 165 -40 142 -157 253 -328 315 -32
11 -51 23 -48 31 19 69 24 142 13 198 -43 231 -238 390 -477 390 -150 -1 -287
-52 -366 -137 -71 -77 -119 -211 -119 -335 l0 -37 64 6 c94 8 154 -3 188 -37
15 -16 28 -39 28 -51 0 -35 -69 -93 -136 -115 -83 -27 -324 -28 -403 -1 -86
29 -135 69 -168 134 -26 54 -28 67 -28 173 1 123 30 260 64 300 9 10 57 35
106 55 308 125 599 313 774 500 144 155 234 320 274 505 26 116 31 421 9 506
l-13 51 41 64 c89 138 156 313 181 473 23 143 -3 358 -61 514 -139 371 -544
755 -935 886 -287 96 -642 69 -961 -74 -46 -21 -66 -26 -69 -17 -2 6 -14 41
-25 76 -100 302 -360 548 -700 659 -212 70 -453 96 -740 81z m256 -160 c360
-35 640 -144 832 -324 154 -144 253 -351 269 -563 5 -62 4 -74 -8 -69 -8 3
-51 21 -96 41 -178 76 -411 141 -618 172 l-115 17 -11 41 c-47 179 -127 331
-230 440 -123 129 -259 198 -449 228 l-85 13 50 6 c86 10 347 9 461 -2z m-406
-95 c141 -33 284 -126 366 -237 73 -99 136 -239 159 -354 l7 -33 -128 3 -127
2 -19 55 c-45 132 -134 270 -225 350 -66 57 -173 107 -268 127 -68 14 -94 14
-172 5 -51 -7 -115 -20 -143 -31 -64 -24 -57 -14 28 42 110 73 211 99 362 91
52 -2 124 -11 160 -20z m-300 -175 c129 -20 253 -99 334 -212 52 -72 131 -231
122 -245 -3 -5 -33 -12 -67 -16 -34 -4 -105 -18 -157 -32 -53 -13 -101 -24
-107 -24 -5 0 -25 23 -44 50 -115 170 -259 260 -416 260 -55 0 -132 -18 -200
-46 -17 -7 -16 -2 9 42 73 126 194 202 358 223 90 12 96 12 168 0z m-265 -374
c63 -11 132 -54 196 -124 33 -35 59 -68 59 -72 0 -5 -33 -23 -72 -42 l-73 -33
-20 30 c-34 49 -70 69 -133 74 -104 7 -189 -46 -241 -150 -38 -75 -39 -118 -5
-186 l26 -52 -47 -56 -48 -55 -29 28 c-16 15 -43 57 -61 93 -29 58 -32 73 -32
155 0 116 28 177 118 262 92 85 237 151 307 138 8 -2 33 -6 55 -10z m3039 -40
c201 -43 391 -145 580 -311 77 -68 239 -244 232 -251 -2 -2 -33 10 -70 27
-290 132 -709 90 -1038 -103 l-68 -39 -61 55 c-77 70 -208 163 -326 233 l-92
55 6 102 c3 56 8 105 12 108 12 13 187 78 266 100 186 51 389 60 559 24z
m-3598 -77 c-64 -90 -94 -162 -103 -243 -5 -50 -6 -50 -77 -92 -230 -136 -397
-337 -469 -568 -38 -120 -51 -225 -50 -385 1 -138 11 -205 48 -315 17 -51 -58
89 -85 157 -66 170 -75 218 -75 408 0 159 3 184 27 272 118 423 349 673 709
768 94 24 94 24 75 -2z m1731 -89 c393 -33 868 -192 1158 -388 203 -136 374
-317 505 -534 l23 -39 -60 30 c-121 62 -193 77 -358 77 -129 0 -161 -3 -225
-23 -270 -84 -482 -302 -557 -572 -25 -91 -25 -319 0 -410 61 -221 226 -421
430 -519 130 -63 190 -75 357 -76 125 0 155 3 220 23 92 29 191 79 254 127 26
20 50 34 52 32 8 -8 -76 -250 -102 -295 -61 -104 -137 -159 -260 -188 -109
-26 -380 -14 -599 26 -201 37 -446 50 -588 31 -247 -33 -464 -137 -613 -293
l-61 -64 -6 121 c-11 253 -99 454 -277 636 -74 75 -132 121 -265 209 -390 259
-534 389 -615 555 -132 270 -72 609 166 931 215 291 518 488 877 568 192 43
337 53 544 35z m-1797 -370 c7 -17 31 -58 52 -91 22 -33 38 -61 36 -62 -146
-65 -271 -153 -342 -239 -107 -131 -185 -313 -207 -486 -13 -103 -2 -259 26
-362 27 -101 25 -104 -14 -24 -85 172 -123 386 -101 562 27 217 104 378 254
529 81 82 243 203 272 204 6 0 17 -14 24 -31z m4325 -64 c131 -37 243 -114
284 -195 18 -35 44 -111 56 -163 5 -27 3 -26 -44 21 -101 101 -253 149 -446
139 -169 -8 -345 -64 -527 -166 l-87 -49 -25 42 c-13 22 -47 73 -75 111 l-52
70 27 22 c47 37 216 120 289 142 135 40 221 51 385 47 105 -3 174 -9 215 -21z
m-4165 -190 c0 -3 -16 -37 -36 -76 -125 -249 -178 -509 -140 -689 19 -91 87
-230 156 -322 106 -140 296 -299 622 -523 280 -191 380 -332 439 -617 18 -89
20 -128 17 -285 -2 -100 -7 -186 -11 -190 -13 -13 -133 34 -312 122 l-170 84
0 163 c0 192 -9 228 -87 345 -65 96 -169 185 -338 288 -165 100 -240 157 -335
251 -149 147 -266 339 -317 519 -19 66 -23 104 -23 215 1 121 4 143 29 215 80
230 206 375 407 470 71 33 99 41 99 30z m4214 -120 c143 -30 268 -116 297
-202 17 -52 6 -181 -25 -286 -27 -90 -94 -247 -105 -247 -4 0 -15 14 -24 30
-27 46 -122 145 -178 186 -32 24 -59 54 -76 87 -37 73 -122 159 -196 196 -76
38 -177 61 -277 61 l-75 0 25 20 c14 11 70 42 125 69 180 89 355 119 509 86z
m-1160 -250 c38 -8 107 -33 154 -56 70 -34 102 -57 172 -128 139 -140 200
-286 200 -476 0 -318 -209 -587 -518 -666 -297 -76 -627 80 -766 361 -99 202
-101 404 -7 595 141 284 455 436 765 370z m673 -79 c212 -57 327 -225 294
-433 -24 -157 -118 -269 -279 -332 l-54 -21 8 32 c4 18 10 62 13 98 5 54 10
66 29 76 125 62 150 227 49 333 -40 42 -100 70 -149 71 -21 0 -38 3 -38 8 0 4
-22 38 -50 76 -72 99 -70 106 38 106 48 0 111 -7 139 -14z m529 -509 c49 -96
66 -187 67 -362 1 -133 -3 -175 -21 -248 -37 -148 -104 -276 -210 -398 -84
-97 -94 -98 -46 -3 62 124 79 203 79 364 0 142 -19 241 -67 353 l-21 48 30 32
c62 67 96 150 108 261 l7 67 25 -33 c14 -18 36 -55 49 -81z m-277 -370 c50
-134 56 -168 56 -307 0 -115 -3 -145 -23 -204 -45 -133 -114 -246 -214 -349
-35 -37 -51 -49 -38 -30 37 56 98 195 119 273 24 84 28 225 10 312 -15 71 -59
163 -109 225 l-40 51 43 11 c23 6 69 24 102 40 33 16 63 30 67 30 4 1 16 -23
27 -52z m-310 -144 c56 -63 98 -152 118 -248 14 -67 14 -94 5 -170 -41 -327
-232 -544 -549 -624 -148 -38 -236 -45 -508 -41 -539 8 -635 6 -715 -13 -146
-34 -254 -100 -312 -189 l-33 -51 -119 7 c-118 7 -332 38 -375 54 -22 8 -21
10 37 98 138 205 294 332 489 398 199 67 400 67 898 -1 337 -46 492 -34 672
54 141 69 222 176 277 367 27 92 56 277 56 356 0 28 4 50 9 50 5 0 28 -21 50
-47z m-3669 -292 c236 -161 353 -290 395 -435 17 -59 17 -174 -1 -316 -6 -45
-6 -45 52 -92 237 -192 760 -359 1120 -358 140 1 194 11 214 41 39 60 88 102
164 139 151 74 308 91 619 65 115 -9 221 -15 237 -13 44 7 28 -14 -78 -102
-156 -130 -333 -225 -514 -275 l-95 -27 -27 -106 c-49 -197 -152 -364 -264
-429 -115 -68 -255 0 -270 132 -4 37 1 57 28 112 52 105 154 199 346 320 16
10 17 13 4 22 -60 43 -159 33 -254 -24 l-57 -34 -107 9 c-646 57 -1237 305
-1760 741 l-115 96 -56 -14 c-31 -8 -117 -17 -191 -20 -217 -9 -320 29 -320
119 0 110 100 170 280 169 140 0 280 -35 409 -101 24 -12 45 -20 47 -17 2 2
-7 26 -21 53 -14 27 -30 78 -36 112 -12 68 -9 358 4 379 9 14 17 10 247 -146z
m10 -1036 c108 -71 347 -205 366 -205 28 0 34 -27 24 -99 -13 -95 -56 -202
-116 -292 -53 -81 -174 -207 -242 -253 -41 -28 -43 -29 -57 -10 -31 40 -145
283 -175 374 -67 202 -100 394 -100 588 l0 122 100 -79 c54 -44 145 -110 200
-146z m3080 93 c0 -2 -7 -39 -15 -83 -8 -44 -14 -117 -15 -163 0 -82 0 -83
-22 -77 -44 13 -103 45 -138 73 l-34 29 104 111 c89 94 121 124 120 110z
m1234 -23 c156 -66 217 -245 160 -470 -5 -20 1 -25 63 -43 131 -40 273 -160
307 -258 16 -49 19 -116 6 -169 l-7 -30 -7 30 c-39 153 -61 200 -125 258 -77
70 -179 107 -293 107 -38 0 -68 1 -68 3 0 1 9 26 20 55 69 181 37 354 -90 485
-54 55 -55 58 -27 51 16 -3 44 -12 61 -19z m-158 -26 c123 -59 180 -190 156
-359 -12 -86 -42 -172 -76 -222 l-23 -34 106 -1 c113 0 188 -16 271 -58 147
-76 222 -281 147 -407 -29 -50 -43 -60 -106 -83 l-38 -13 14 49 c37 124 -45
251 -190 294 -63 19 -213 19 -289 1 -53 -12 -59 -12 -74 5 -10 11 -41 31 -70
45 l-52 26 14 33 c16 39 18 93 5 128 -8 21 -6 26 16 38 41 22 100 104 108 148
20 117 -70 216 -207 229 -67 6 -67 7 -20 96 46 84 113 119 212 110 30 -2 73
-14 96 -25z m-1186 -353 c41 -20 82 -36 92 -36 10 0 24 -15 33 -34 44 -93 161
-180 301 -224 l84 -27 0 -35 c-1 -106 -102 -200 -216 -200 -104 0 -315 87
-404 167 l-52 47 7 80 c8 97 7 308 -2 344 -6 25 -5 25 38 -10 24 -20 78 -53
119 -72z m-253 -83 c-8 -222 -48 -364 -124 -435 -75 -72 -215 -102 -336 -74
-54 13 -178 64 -195 80 -2 2 13 33 33 69 34 62 95 223 95 251 0 7 39 27 88 46
101 38 293 133 372 184 30 20 59 36 64 36 5 0 7 -67 3 -157z m-2106 86 c183
-67 471 -134 679 -158 52 -6 114 -14 138 -17 l43 -5 -21 -34 c-65 -105 -80
-261 -34 -352 14 -29 43 -68 64 -87 42 -38 129 -86 155 -86 27 0 -22 -75 -93
-141 -102 -96 -188 -110 -323 -53 -298 126 -549 460 -682 912 -9 28 -15 52
-13 52 1 0 40 -14 87 -31z m-36 -404 c68 -138 156 -275 251 -388 73 -88 74
-90 74 -146 0 -99 -41 -218 -101 -290 -25 -31 -38 -27 -183 59 -196 117 -365
258 -491 409 l-61 74 116 116 c82 83 128 139 162 196 42 73 87 187 103 259 5
26 11 16 41 -75 19 -57 59 -153 89 -214z m3275 105 c0 -32 -28 -92 -58 -124
-59 -63 -183 -128 -218 -115 -21 7 -21 8 -3 61 10 29 18 74 19 100 l0 47 48 6
c70 9 134 22 162 34 38 15 50 13 50 -9z m-912 -283 c31 -19 78 -42 103 -52 54
-20 59 -32 59 -154 0 -167 -80 -231 -288 -231 -99 0 -197 21 -282 61 l-69 31
-3 115 -3 114 40 10 c104 25 195 94 247 187 l30 52 54 -49 c30 -27 80 -65 112
-84z m990 67 c12 -8 22 -18 22 -22 0 -4 -20 -18 -44 -31 -25 -13 -82 -48 -127
-78 -45 -29 -82 -53 -83 -51 -10 17 -23 94 -16 96 5 2 46 27 92 57 87 56 108
60 156 29z m-1731 -153 c34 -11 83 -23 108 -26 l45 -7 0 -87 c0 -150 -42 -290
-103 -349 -77 -74 -305 -68 -469 13 -61 30 -178 107 -178 116 0 4 16 19 35 33
37 29 110 126 144 193 16 32 34 49 79 73 32 17 81 53 107 80 l48 49 61 -34
c34 -18 89 -42 123 -54z m1350 47 c33 -37 43 -64 43 -116 l0 -48 -157 -126
c-87 -68 -183 -143 -214 -166 l-56 -42 -37 35 -37 35 35 35 c68 67 81 106 81
233 l0 112 50 0 c62 0 159 24 200 50 41 25 68 24 92 -2z m-2385 -435 c80 -32
199 -41 278 -19 30 8 58 12 62 8 21 -21 62 -125 84 -210 28 -106 27 -161 -3
-194 -15 -17 -25 -19 -68 -14 -141 18 -605 153 -605 176 0 4 11 27 25 52 39
70 58 161 50 241 l-6 68 60 -41 c33 -22 88 -52 123 -67z m1502 -43 c92 -23
208 -26 284 -6 49 12 53 12 86 -10 34 -23 50 -49 41 -64 -9 -15 -193 -120
-297 -170 -57 -27 -151 -65 -208 -84 l-105 -34 -11 49 c-14 61 -53 121 -104
158 l-39 28 33 32 c33 32 79 114 91 163 l7 26 71 -34 c40 -18 108 -43 151 -54z
m-942 -94 c151 -83 351 -124 467 -96 49 12 54 11 91 -14 50 -33 87 -89 96
-142 l6 -40 -69 -13 c-164 -29 -342 -38 -510 -25 l-82 7 6 67 c6 72 -17 172
-58 252 -11 21 -17 38 -15 38 3 0 34 -15 68 -34z"/>
<path d="M6225 11164 c-285 -46 -529 -237 -636 -496 -86 -210 -78 -461 23
-663 72 -143 182 -262 316 -340 360 -212 823 -111 1068 231 164 230 194 546
74 802 -101 217 -290 377 -522 442 -72 21 -257 34 -323 24z m267 -153 c148
-38 291 -131 375 -244 189 -255 188 -584 -2 -836 -190 -250 -559 -335 -834
-193 -132 69 -225 163 -291 297 -55 111 -73 189 -73 315 0 66 6 129 16 170 22
83 85 212 134 270 86 105 227 195 347 224 90 21 238 20 328 -3z"/>
<path d="M6288 10436 c-93 -25 -167 -98 -199 -194 -15 -45 -6 -148 16 -192 24
-48 82 -107 130 -133 60 -32 183 -31 248 3 167 85 203 301 74 438 -67 71 -178
103 -269 78z m206 -277 c35 -16 52 -61 37 -98 -12 -28 -47 -51 -77 -51 -23 0
-74 55 -74 80 0 25 51 80 74 80 8 0 26 -5 40 -11z"/>
<path d="M6790 9570 c-19 -5 -80 -13 -135 -19 -76 -9 -115 -19 -162 -41 -103
-51 -173 -152 -173 -249 0 -41 28 -106 59 -138 l22 -23 -21 -79 c-35 -138 -22
-252 37 -313 63 -65 176 -87 260 -48 51 23 122 92 163 159 30 48 32 49 69 44
22 -3 62 0 90 7 180 43 251 310 126 474 -18 24 -39 63 -45 85 -24 90 -181 166
-290 141z m-91 -164 c43 -99 220 -173 314 -132 13 7 20 1 32 -27 52 -126 7
-246 -99 -262 -50 -8 -67 -1 -143 61 -83 68 -160 102 -270 119 -81 13 -119 72
-94 148 12 35 59 86 99 106 22 12 89 28 124 30 11 1 24 -15 37 -43z m-108
-349 l37 -12 -63 -132 c-35 -73 -66 -133 -69 -133 -3 0 -12 13 -21 30 -21 41
-19 118 6 195 24 72 34 77 110 52z m151 -84 c15 -15 28 -33 28 -40 0 -26 -50
-112 -84 -147 -33 -32 -90 -55 -103 -42 -8 8 109 255 121 256 6 0 23 -12 38
-27z"/>
<path d="M7710 9763 c-61 -22 -142 -104 -163 -167 -27 -79 -22 -144 16 -217
89 -173 307 -209 442 -74 56 57 80 116 79 200 -1 112 -52 192 -156 244 -71 36
-143 40 -218 14z m234 -264 c36 -17 54 -65 35 -98 -23 -41 -60 -57 -97 -42
-59 24 -66 111 -11 138 30 16 42 16 73 2z"/>
<path d="M5475 5989 c-38 -5 -96 -7 -127 -4 l-58 5 0 -944 0 -944 150 2 c108
1 153 5 162 14 10 10 13 92 13 380 0 352 1 368 21 402 42 71 126 99 212 69 72
-25 92 -147 92 -573 0 -149 4 -277 9 -285 7 -12 36 -13 155 -8 80 3 150 8 155
11 5 4 9 224 7 544 -1 483 -3 542 -19 589 -32 95 -129 146 -277 146 -96 0
-167 -22 -263 -79 l-72 -43 -5 362 -5 362 -40 1 c-22 1 -71 -2 -110 -7z"/>
<path d="M9105 5986 c-201 -40 -283 -106 -357 -289 l-33 -82 -3 -495 c-3 -583
5 -737 42 -815 48 -98 155 -176 287 -210 133 -35 373 -15 484 40 134 66 244
201 291 360 22 73 25 230 5 296 -16 58 -21 59 -216 59 l-142 0 -7 -46 c-3 -26
-6 -72 -6 -103 0 -104 -59 -180 -149 -195 -111 -17 -183 76 -203 262 -12 115
-3 659 12 713 12 44 50 65 132 75 41 5 64 2 91 -11 62 -29 82 -80 95 -240 l7
-89 35 -8 c61 -13 224 -21 282 -14 52 7 57 10 68 39 18 48 24 213 11 278 -27
127 -116 266 -224 346 -153 113 -337 161 -502 129z"/>
<path d="M1858 5910 c-96 -24 -139 -46 -200 -100 -58 -51 -101 -137 -123 -243
-50 -251 -39 -878 20 -1133 20 -85 63 -177 110 -231 42 -50 149 -106 232 -124
115 -23 389 13 493 66 142 72 184 140 211 343 12 95 8 479 -6 514 -10 26 -60
32 -290 32 -154 1 -216 -2 -232 -12 -22 -12 -23 -19 -23 -121 0 -60 3 -122 6
-139 l6 -31 97 -3 96 -3 -1 -71 c-2 -83 -24 -138 -67 -164 -45 -28 -146 -44
-194 -31 -108 29 -137 139 -137 516 1 327 31 518 92 565 23 19 37 21 106 18
l78 -3 43 -48 c24 -26 54 -74 66 -107 l23 -59 65 -7 c64 -7 248 0 258 9 2 3 4
46 4 96 0 231 -107 383 -323 458 -103 36 -297 42 -410 13z"/>
<path d="M6863 5435 c-40 -7 -103 -27 -139 -44 -200 -94 -247 -207 -248 -601
0 -203 1 -221 27 -315 36 -136 86 -234 153 -300 45 -45 66 -58 124 -76 63 -19
88 -20 272 -17 180 4 209 7 258 26 62 24 122 79 144 132 19 47 36 164 39 275
l2 90 -157 3 -158 3 0 -31 c0 -133 -90 -220 -197 -191 -53 14 -96 50 -130 109
-23 39 -27 59 -31 152 l-4 107 138 -5 c127 -4 424 10 517 25 l37 6 0 116 c0
207 -45 338 -145 430 -63 57 -127 84 -252 106 -101 18 -153 18 -250 0z m245
-260 c72 -31 121 -102 122 -177 l0 -38 -182 0 c-101 0 -194 3 -206 7 -22 5
-23 9 -17 52 8 50 35 110 59 130 47 40 160 52 224 26z"/>
<path d="M3055 5426 c-130 -32 -194 -83 -225 -182 -33 -108 -39 -189 -35 -479
4 -289 15 -377 57 -464 30 -62 108 -135 185 -173 57 -28 76 -32 206 -40 169
-11 280 -4 362 24 73 24 104 45 138 96 51 73 78 288 78 619 0 322 -24 441
-105 506 -108 89 -182 107 -426 106 -109 0 -206 -6 -235 -13z m344 -391 c82
-42 107 -123 98 -323 -8 -167 -24 -211 -88 -236 -58 -23 -155 -23 -204 0 -20
9 -46 31 -57 48 -18 29 -19 44 -14 220 7 221 15 246 85 283 52 27 137 31 180
8z"/>
<path d="M10282 5429 c-59 -11 -151 -55 -185 -87 -17 -16 -37 -56 -54 -107
-26 -78 -27 -87 -31 -381 -4 -330 6 -440 52 -539 44 -97 125 -168 235 -205 52
-17 90 -21 244 -23 234 -3 308 14 385 87 46 43 58 69 76 167 47 252 47 716 0
877 -27 96 -121 173 -249 207 -66 17 -394 20 -473 4z m338 -397 c76 -38 108
-142 96 -316 -12 -177 -31 -223 -102 -246 -54 -18 -147 -15 -190 6 -71 35 -76
51 -74 225 2 254 13 293 94 333 42 21 132 20 176 -2z"/>
<path d="M11500 5409 c-30 -4 -96 -7 -146 -8 -74 -1 -93 -4 -98 -17 -8 -21 -8
-571 1 -967 l6 -315 148 1 c106 2 152 6 161 15 10 10 12 88 10 372 -3 341 -2
362 17 405 26 58 69 85 139 85 29 0 66 -7 82 -15 68 -35 79 -109 87 -537 l6
-328 82 0 c45 0 116 3 157 6 l76 7 7 436 c8 435 1 612 -26 705 -24 86 -126
138 -269 138 -101 1 -182 -23 -273 -82 -34 -21 -65 -36 -69 -34 -4 3 -8 34 -8
68 0 73 -3 76 -90 65z"/>
<path d="M4033 5394 c-6 -16 -1 -494 14 -1406 l6 -407 43 -7 c56 -8 260 -1
271 9 4 5 9 137 11 293 2 156 5 284 6 284 2 0 17 -7 32 -15 54 -27 135 -37
268 -32 144 5 200 19 257 66 107 89 159 320 138 613 -22 299 -73 437 -193 529
-64 49 -132 70 -242 76 -113 7 -168 -13 -209 -76 -15 -22 -31 -38 -36 -35 -5
3 -9 25 -9 49 0 72 -8 75 -191 75 -138 0 -160 -2 -166 -16z m612 -337 c123
-70 180 -287 126 -482 -33 -120 -102 -165 -249 -165 -85 0 -105 8 -129 53 -26
47 -26 417 0 493 16 48 64 105 97 117 38 14 116 6 155 -16z"/>
<path d="M7818 5403 l-108 -4 0 -378 c0 -208 3 -500 7 -649 l6 -271 156 2 c86
1 162 6 170 11 11 7 12 77 10 390 -4 366 -3 382 16 415 33 57 80 74 198 73 66
-1 130 -9 181 -22 44 -11 81 -20 83 -20 1 0 3 102 3 226 l0 227 -132 -6 c-134
-6 -188 -16 -286 -56 -29 -11 -55 -21 -57 -21 -3 0 -5 20 -5 45 l0 45 -67 -2
c-38 -1 -116 -4 -175 -5z"/>
<path d="M6195 3773 c-251 -20 -450 -101 -568 -232 -59 -66 -123 -194 -143
-286 -21 -101 -28 -454 -15 -810 22 -598 71 -800 222 -911 120 -88 274 -128
556 -145 191 -11 333 -9 1903 36 470 13 1060 29 1310 35 694 15 760 18 826 34
145 36 247 110 307 224 51 97 65 167 82 412 9 118 22 285 30 370 21 225 38
593 30 679 -22 244 -175 394 -480 471 -171 43 -270 48 -1120 54 -1236 9 -2095
30 -2588 61 -219 14 -264 15 -352 8z m430 -483 c215 -24 320 -138 347 -375 28
-251 -24 -329 -313 -471 -90 -45 -179 -94 -198 -110 -37 -31 -61 -78 -61 -120
l0 -27 264 8 264 7 8 -24 c4 -12 8 -75 8 -139 l1 -116 -209 -6 c-115 -4 -321
-7 -458 -7 l-248 0 0 108 c0 140 16 264 42 324 27 64 100 128 236 208 59 34
142 83 186 109 107 63 131 95 131 178 0 62 -1 66 -39 100 -35 32 -42 35 -84
30 -79 -9 -132 -92 -132 -206 0 -27 -2 -28 -61 -35 -34 -3 -108 -6 -165 -6
l-102 0 -7 66 c-15 139 14 261 86 356 67 90 149 130 297 148 97 11 108 11 207
0z m1200 -12 c167 -42 308 -206 351 -408 17 -80 22 -310 9 -423 -18 -158 -109
-347 -208 -432 -93 -80 -218 -114 -350 -96 -239 33 -363 163 -398 415 -6 44
-11 177 -12 295 -2 243 5 289 68 418 94 191 317 287 540 231z m1231 -55 c6
-72 3 -313 -12 -1005 l-7 -288 -36 -10 c-42 -11 -116 -13 -224 -4 l-77 7 0
205 c0 112 5 291 11 396 6 105 9 231 7 280 l-3 89 -33 -53 -33 -52 -48 6 c-75
10 -204 46 -220 61 -12 12 -9 24 21 87 32 67 179 299 216 341 13 15 38 17 223
17 l207 0 8 -77z m1017 29 c80 -40 138 -105 163 -185 25 -79 30 -211 10 -277
-19 -65 -74 -150 -116 -181 l-30 -23 34 -28 c87 -71 137 -209 119 -327 -21
-135 -111 -260 -216 -299 -183 -69 -441 -49 -561 43 -96 73 -148 182 -149 310
-1 104 21 177 78 254 l45 62 -30 38 c-68 84 -95 225 -66 338 30 121 91 212
173 260 81 47 115 53 303 50 l175 -2 68 -33z"/>
<path d="M7623 2965 c-17 -7 -38 -26 -46 -42 -41 -79 -55 -403 -23 -528 35
-136 62 -163 153 -152 85 9 111 67 123 277 14 232 -12 384 -71 435 -35 29 -85
33 -136 10z"/>
<path d="M9723 2920 c-37 -22 -41 -42 -19 -95 17 -40 42 -55 90 -55 48 0 65 8
81 41 22 41 18 77 -10 104 -31 32 -95 34 -142 5z"/>
<path d="M9729 2435 c-35 -19 -62 -77 -54 -116 10 -44 48 -64 123 -64 57 0 66
3 88 28 45 52 27 119 -40 151 -41 20 -82 20 -117 1z"/>
<path d="M3220 3730 c-296 -47 -501 -339 -450 -639 16 -97 68 -199 139 -270
71 -72 117 -94 267 -127 189 -41 269 -92 295 -186 30 -113 -38 -198 -159 -198
-86 0 -164 52 -183 122 l-10 38 -194 0 -195 0 0 -27 c0 -16 4 -55 10 -87 39
-241 308 -426 617 -426 296 1 484 174 525 485 13 95 -6 209 -47 288 -82 158
-246 288 -410 326 -159 36 -181 43 -208 68 -65 63 -51 189 26 230 40 21 131
22 172 0 53 -27 87 -71 92 -121 l5 -45 56 -7 c64 -8 310 0 320 11 4 4 7 57 7
119 0 109 -1 114 -38 188 -83 168 -239 253 -484 263 -54 2 -123 0 -153 -5z"/>
<path d="M4793 3223 l-33 -4 0 -60 c0 -32 -3 -59 -7 -59 -5 0 -18 15 -30 34
-36 55 -101 81 -208 81 -227 -1 -359 -118 -420 -375 -27 -111 -33 -468 -10
-582 48 -239 150 -318 409 -318 135 1 198 11 238 40 15 11 28 20 30 20 2 0 2
-45 2 -99 -2 -155 -41 -211 -151 -218 -46 -3 -65 0 -91 16 -37 24 -72 76 -72
108 0 19 -7 22 -53 28 -65 8 -263 3 -273 -7 -10 -11 14 -145 35 -194 36 -81
139 -162 243 -190 29 -8 121 -17 203 -21 175 -7 266 5 339 45 48 26 117 95
141 142 21 41 40 798 30 1241 l-7 366 -76 7 c-77 6 -183 6 -239 -1z m-113
-338 c16 -8 37 -26 45 -39 28 -43 44 -156 46 -331 3 -154 1 -174 -18 -216 -26
-58 -63 -73 -168 -67 -99 5 -146 36 -195 132 -31 62 -35 77 -38 170 -3 84 0
112 18 165 39 118 96 183 175 204 31 9 102 -1 135 -18z"/>
</g>
</svg>
